# Blender v2.80 (sub 75) OBJ File: ''
# www.blender.org
mtllib FoodTry.mtl
o FoodParticleSingle
v -0.764057 -0.591092 0.358883
v -0.948266 -0.471801 0.321365
v -0.948250 -0.471829 -0.322444
v -0.764057 -0.591091 -0.359719
v -1.020019 -0.264216 0.307350
v -1.020019 -0.264215 -0.308186
v -0.740919 -0.302496 0.634033
v -0.750718 -0.506547 0.554524
v 0.735541 -0.874177 0.881085
v 0.736240 -0.664209 0.967575
v 0.734630 -0.961157 0.672128
v -0.940381 -0.268949 0.515540
v -0.946913 0.277637 0.513519
v -1.020019 0.263227 0.307350
v -0.760776 0.317544 0.629551
v 1.063895 -0.717193 0.716292
v 0.961392 -0.916607 0.707086
v 0.961392 -0.916606 -0.707899
v 1.063895 -0.717192 -0.717113
v 0.734630 -0.961156 -0.672964
v 0.962227 -0.705795 0.918549
v 0.961681 0.702583 0.918420
v 0.733749 0.660354 0.967013
v 1.063895 0.716205 0.716292
v -0.948266 0.470813 0.321365
v -0.948448 0.470137 -0.320993
v -1.020019 0.261132 -0.306089
v -0.764057 0.590104 0.358883
v -0.764057 0.590105 -0.359719
v -0.764240 0.510366 0.549586
v 0.734204 0.872431 0.880591
v 0.734630 0.960173 0.672128
v 0.961392 0.915623 0.707086
v 0.960511 0.915459 -0.706235
v 0.731333 0.959360 -0.669249
v 1.063895 0.716488 -0.717402
v -0.947081 0.276065 -0.513671
v -0.946944 -0.278418 -0.514332
v -0.760776 0.317544 -0.630387
v -0.760776 -0.318530 -0.630387
v -0.762417 0.510277 -0.551113
v 0.733749 0.872562 -0.880857
v 0.736240 0.663222 -0.968411
v 0.962379 0.704158 -0.919491
v 0.961696 -0.703583 -0.919225
v 0.733749 -0.661341 -0.967849
v -0.762417 -0.511263 -0.551113
v 0.734083 -0.873351 -0.881434
v -0.909525 -0.438669 0.486910
v 0.917622 -0.871232 0.873899
v -0.915663 0.441974 0.484107
v 0.917227 0.869349 0.873732
v -0.915040 0.441234 -0.484767
v 0.917000 0.869669 -0.874111
v -0.914827 -0.442826 -0.485390
v 0.917167 -0.870327 -0.874567
vt 0.405710 0.966240
vt 0.375000 0.956075
vt 0.375000 0.792819
vt 0.405710 0.809048
vt 0.331075 -0.000000
vt 0.317324 0.062494
vt 0.182676 0.062494
vt 0.167819 -0.000000
vt 0.408483 0.069756
vt 0.398984 -0.000000
vt 0.601432 -0.000000
vt 0.585693 0.055084
vt 0.398984 1.000000
vt 0.585497 0.964601
vt 0.601432 1.000000
vt 0.365817 0.063291
vt 0.365445 0.200140
vt 0.317324 0.187506
vt 0.406101 0.215553
vt 0.664021 0.039022
vt 0.650163 -0.000000
vt 0.849808 -0.000000
vt 0.835978 0.039022
vt 0.625000 0.974837
vt 0.585497 0.803238
vt 0.625000 0.775192
vt 0.625517 0.041928
vt 0.625524 0.215896
vt 0.585394 0.214058
vt 0.664021 0.210979
vt 0.332045 0.250000
vt 0.168251 0.250000
vt 0.183135 0.187010
vt 0.375000 0.292955
vt 0.405710 0.309048
vt 0.405710 0.466240
vt 0.375000 0.456748
vt 0.407363 0.261029
vt 0.590356 0.257719
vt 0.585497 0.303238
vt 0.625000 0.275197
vt 0.625000 0.474682
vt 0.585102 0.464246
vt 0.650197 0.250000
vt 0.836013 0.211013
vt 0.849682 0.250000
vt 0.125000 0.202325
vt 0.125000 0.047475
vt 0.375000 0.547675
vt 0.406101 0.564793
vt 0.406101 0.715553
vt 0.375000 0.702525
vt 0.407588 0.513600
vt 0.590316 0.508597
vt 0.585693 0.555083
vt 0.625000 0.525165
vt 0.625000 0.724727
vt 0.585394 0.714058
vt 0.875000 0.224835
vt 0.875000 0.025273
vt 0.407578 0.760923
vt 0.590339 0.757713
vt 0.375000 0.000000
vt 0.375000 1.000000
vt 0.625000 1.000000
vt 0.625000 0.000000
vt 0.375000 0.250000
vt 0.625000 0.250000
vt 0.375000 0.500000
vt 0.125000 0.250000
vt 0.875000 0.250000
vt 0.625000 0.500000
vt 0.375000 0.750000
vt 0.125000 0.000000
vt 0.875000 0.000000
vt 0.625000 0.750000
vn -0.2739 -0.9600 0.0582
vn -0.7737 -0.6303 0.0642
vn -0.7734 -0.6314 -0.0561
vn -0.2732 -0.9603 -0.0569
vn -0.9920 -0.0928 0.0855
vn -0.9925 -0.0910 -0.0819
vn -0.2534 -0.0571 0.9657
vn -0.3341 -0.6539 0.6788
vn -0.2694 -0.6702 0.6916
vn -0.1555 -0.0726 0.9852
vn -0.1782 -0.9813 0.0724
vn -0.7544 -0.0655 0.6532
vn -0.7587 0.0554 0.6490
vn -0.9924 0.0899 0.0843
vn -0.2548 0.0595 0.9652
vn 0.9966 -0.0590 0.0583
vn 0.6168 -0.7859 0.0445
vn 0.6168 -0.7858 -0.0452
vn 0.9966 -0.0591 -0.0580
vn -0.1772 -0.9817 -0.0698
vn 0.6320 -0.0448 0.7737
vn 0.6323 0.0452 0.7734
vn -0.1556 0.0737 0.9851
vn 0.9966 0.0593 0.0580
vn -0.7741 0.6307 0.0551
vn -0.7744 0.6302 -0.0564
vn -0.9925 0.0906 -0.0816
vn -0.2733 0.9602 0.0570
vn -0.2733 0.9602 -0.0570
vn -0.3324 0.6615 0.6722
vn -0.2667 0.6794 0.6836
vn -0.1771 0.9817 0.0697
vn 0.6147 0.7875 0.0447
vn 0.6152 0.7871 -0.0450
vn -0.1775 0.9816 -0.0699
vn 0.9965 0.0591 -0.0582
vn -0.7651 0.0613 -0.6410
vn -0.7647 -0.0605 -0.6416
vn -0.2542 0.0583 -0.9654
vn -0.2541 -0.0581 -0.9654
vn -0.3325 0.6645 -0.6693
vn -0.2667 0.6809 -0.6821
vn -0.1559 0.0728 -0.9851
vn 0.6319 0.0453 -0.7738
vn 0.6321 -0.0453 -0.7735
vn -0.1561 -0.0728 -0.9850
vn -0.3322 -0.6614 -0.6724
vn -0.2667 -0.6794 -0.6836
vn -0.6945 -0.4758 0.5397
vn 0.4024 -0.6494 0.6452
vn -0.7110 0.4917 0.5027
vn 0.3999 0.6455 0.6507
vn -0.7122 0.4906 -0.5020
vn 0.3979 0.6551 -0.6423
vn -0.7093 -0.4926 -0.5042
vn 0.3998 -0.6455 -0.6507
usemtl blinn25SG
s 1
f 1/1/1 2/2/2 3/3/3 4/4/4
f 2/5/2 5/6/5 6/7/6 3/8/3
f 7/9/7 8/10/8 9/11/9 10/12/10
f 8/13/8 1/1/1 11/14/11 9/15/9
f 5/6/5 12/16/12 13/17/13 14/18/14
f 12/16/12 7/9/7 15/19/15 13/17/13
f 16/20/16 17/21/17 18/22/18 19/23/19
f 17/24/17 11/14/11 20/25/20 18/26/18
f 10/12/10 21/27/21 22/28/22 23/29/23
f 21/27/21 16/20/16 24/30/24 22/28/22
f 14/18/14 25/31/25 26/32/26 27/33/27
f 25/34/25 28/35/28 29/36/29 26/37/26
f 28/35/28 30/38/30 31/39/31 32/40/32
f 30/38/30 15/19/15 23/29/23 31/39/31
f 32/40/32 33/41/33 34/42/34 35/43/35
f 33/44/33 24/30/24 36/45/36 34/46/34
f 27/33/27 37/47/37 38/48/38 6/7/6
f 37/49/37 39/50/39 40/51/40 38/52/38
f 39/50/39 41/53/41 42/54/42 43/55/43
f 41/53/41 29/36/29 35/43/35 42/54/42
f 43/55/43 44/56/44 45/57/45 46/58/46
f 44/59/44 36/45/36 19/23/19 45/60/45
f 4/4/4 47/61/47 48/62/48 20/25/20
f 47/61/47 40/51/40 46/58/46 48/62/48
f 7/9/7 10/12/10 23/29/23 15/19/15
f 28/35/28 32/40/32 35/43/35 29/36/29
f 39/50/39 43/55/43 46/58/46 40/51/40
f 4/4/4 20/25/20 11/14/11 1/1/1
f 16/20/16 19/23/19 36/45/36 24/30/24
f 6/7/6 5/6/5 14/18/14 27/33/27
f 12/16/12 5/6/5 2/5/2 49/63/49
f 2/2/2 1/1/1 8/13/8 49/64/49
f 8/10/8 7/9/7 12/16/12 49/63/49
f 9/15/9 11/14/11 17/24/17 50/65/50
f 17/21/17 16/20/16 21/27/21 50/66/50
f 21/27/21 10/12/10 9/11/9 50/66/50
f 30/38/30 28/35/28 25/34/25 51/67/51
f 25/31/25 14/18/14 13/17/13 51/67/51
f 13/17/13 15/19/15 30/38/30 51/67/51
f 22/28/22 24/30/24 33/44/33 52/68/52
f 33/41/33 32/40/32 31/39/31 52/68/52
f 31/39/31 23/29/23 22/28/22 52/68/52
f 41/53/41 39/50/39 37/49/37 53/69/53
f 37/47/37 27/33/27 26/32/26 53/70/53
f 26/37/26 29/36/29 41/53/41 53/69/53
f 34/46/34 36/45/36 44/59/44 54/71/54
f 44/56/44 43/55/43 42/54/42 54/72/54
f 42/54/42 35/43/35 34/42/34 54/72/54
f 47/61/47 4/4/4 3/3/3 55/73/55
f 3/8/3 6/7/6 38/48/38 55/74/55
f 38/52/38 40/51/40 47/61/47 55/73/55
f 45/60/45 19/23/19 18/22/18 56/75/56
f 18/26/18 20/25/20 48/62/48 56/76/56
f 48/62/48 46/58/46 45/57/45 56/76/56
