# Blender v2.80 (sub 75) OBJ File: ''
# www.blender.org
mtllib FoodTry2.mtl
o FoodParticleSingle2
v -1.689266 -3.378107 1.689216
v -2.883479 -2.883445 1.689216
v -2.883479 -2.883445 -1.689168
v -1.689266 -3.378106 -1.689168
v -3.378039 -1.689238 1.689216
v -3.378039 -1.689238 -1.689167
v -1.689266 -1.689239 3.378088
v -1.689266 -2.883446 2.883429
v 1.689266 -2.883446 2.883429
v 1.689266 -1.689239 3.378088
v 1.689266 -3.378107 1.689216
v -2.883479 -1.689238 2.883430
v -2.883479 1.689210 2.883430
v -3.378039 1.689210 1.689217
v -1.689266 1.689210 3.378088
v 3.378137 -1.689238 1.689216
v 2.883479 -2.883445 1.689216
v 2.883479 -2.883445 -1.689168
v 3.378137 -1.689238 -1.689167
v 1.689266 -3.378106 -1.689168
v 2.883479 -1.689238 2.883430
v 2.883479 1.689210 2.883430
v 1.689266 1.689210 3.378088
v 3.378137 1.689210 1.689217
v -2.883479 2.883426 1.689217
v -2.883479 2.883427 -1.689167
v -3.378039 1.689210 -1.689167
v -1.689266 3.378091 1.689217
v -1.689266 3.378091 -1.689167
v -1.689266 2.883426 2.883430
v 1.689266 2.883426 2.883430
v 1.689266 3.378091 1.689217
v 2.883479 2.883426 1.689217
v 2.883479 2.883427 -1.689167
v 1.689266 3.378091 -1.689167
v 3.378137 1.689210 -1.689167
v -2.883479 1.689211 -2.883430
v -2.883479 -1.689237 -2.883430
v -1.689266 1.689211 -3.378088
v -1.689266 -1.689237 -3.378088
v -1.689266 2.883427 -2.883429
v 1.689266 2.883427 -2.883429
v 1.689266 1.689211 -3.378088
v 2.883479 1.689211 -2.883430
v 2.883479 -1.689237 -2.883430
v 1.689266 -1.689237 -3.378088
v -1.689266 -2.883445 -2.883430
v 1.689266 -2.883445 -2.883430
v -2.664003 -2.663970 2.663953
v 2.664003 -2.663970 2.663953
v -2.664003 2.663938 2.663954
v 2.664003 2.663938 2.663954
v -2.664003 2.663939 -2.663953
v 2.664003 2.663939 -2.663953
v -2.664003 -2.663969 -2.663954
v 2.664003 -2.663969 -2.663954
vt 0.437492 0.937507
vt 0.375000 0.952854
vt 0.375000 0.797147
vt 0.437492 0.812494
vt 0.327854 -0.000000
vt 0.312507 0.062494
vt 0.187494 0.062494
vt 0.172147 -0.000000
vt 0.437492 0.062494
vt 0.422146 -0.000000
vt 0.577854 -0.000000
vt 0.562506 0.062494
vt 0.422146 1.000000
vt 0.562506 0.937507
vt 0.577854 1.000000
vt 0.374999 0.057820
vt 0.374999 0.192180
vt 0.312507 0.187507
vt 0.437492 0.187507
vt 0.687493 0.062494
vt 0.672146 -0.000000
vt 0.827853 -0.000000
vt 0.812506 0.062494
vt 0.625000 0.952854
vt 0.562506 0.812494
vt 0.625000 0.797147
vt 0.625000 0.057820
vt 0.625000 0.192180
vt 0.562506 0.187507
vt 0.687493 0.187507
vt 0.327854 0.250000
vt 0.172147 0.250000
vt 0.187494 0.187507
vt 0.375000 0.297146
vt 0.437492 0.312493
vt 0.437492 0.437506
vt 0.375000 0.452853
vt 0.432819 0.250000
vt 0.567179 0.250000
vt 0.562506 0.312493
vt 0.625000 0.297146
vt 0.625000 0.452853
vt 0.562506 0.437506
vt 0.672146 0.250000
vt 0.812506 0.187507
vt 0.827852 0.250000
vt 0.125000 0.202853
vt 0.125000 0.047146
vt 0.375000 0.547147
vt 0.437492 0.562493
vt 0.437492 0.687506
vt 0.375000 0.702854
vt 0.432819 0.500000
vt 0.567180 0.500000
vt 0.562506 0.562493
vt 0.625000 0.547147
vt 0.625000 0.702854
vt 0.562506 0.687506
vt 0.875000 0.202853
vt 0.875000 0.047146
vt 0.432819 0.750000
vt 0.567180 0.750000
vt 0.375000 0.000000
vt 0.375000 1.000000
vt 0.625000 1.000000
vt 0.625000 0.000000
vt 0.375000 0.250000
vt 0.625000 0.250000
vt 0.375000 0.500000
vt 0.125000 0.250000
vt 0.875000 0.250000
vt 0.625000 0.500000
vt 0.375000 0.750000
vt 0.125000 0.000000
vt 0.875000 0.000000
vt 0.625000 0.750000
vn -0.0992 -0.9901 0.0992
vn -0.7050 -0.7050 0.0775
vn -0.7050 -0.7050 -0.0776
vn -0.0992 -0.9901 -0.0992
vn -0.9901 -0.0992 0.0992
vn -0.9901 -0.0992 -0.0992
vn -0.0992 -0.0992 0.9901
vn -0.0775 -0.7050 0.7050
vn 0.0775 -0.7050 0.7050
vn 0.0992 -0.0992 0.9901
vn 0.0992 -0.9901 0.0992
vn -0.7050 -0.0775 0.7050
vn -0.7050 0.0775 0.7050
vn -0.9901 0.0992 0.0992
vn -0.0992 0.0992 0.9901
vn 0.9901 -0.0992 0.0992
vn 0.7050 -0.7050 0.0775
vn 0.7050 -0.7050 -0.0776
vn 0.9901 -0.0992 -0.0992
vn 0.0992 -0.9901 -0.0992
vn 0.7050 -0.0775 0.7050
vn 0.7050 0.0775 0.7050
vn 0.0992 0.0992 0.9901
vn 0.9901 0.0992 0.0992
vn -0.7050 0.7050 0.0775
vn -0.7050 0.7050 -0.0776
vn -0.9901 0.0992 -0.0992
vn -0.0992 0.9901 0.0992
vn -0.0992 0.9901 -0.0992
vn -0.0775 0.7050 0.7050
vn 0.0775 0.7050 0.7050
vn 0.0992 0.9901 0.0992
vn 0.7050 0.7050 0.0775
vn 0.7050 0.7050 -0.0776
vn 0.0992 0.9901 -0.0992
vn 0.9901 0.0992 -0.0992
vn -0.7050 0.0775 -0.7050
vn -0.7050 -0.0775 -0.7050
vn -0.0992 0.0992 -0.9901
vn -0.0992 -0.0992 -0.9901
vn -0.0775 0.7050 -0.7050
vn 0.0775 0.7050 -0.7050
vn 0.0992 0.0992 -0.9901
vn 0.7050 0.0775 -0.7050
vn 0.7050 -0.0775 -0.7050
vn 0.0992 -0.0992 -0.9901
vn -0.0775 -0.7050 -0.7050
vn 0.0775 -0.7050 -0.7050
vn -0.5774 -0.5773 0.5773
vn 0.5774 -0.5774 0.5773
vn -0.5774 0.5773 0.5773
vn 0.5774 0.5773 0.5774
vn -0.5774 0.5773 -0.5773
vn 0.5774 0.5773 -0.5773
vn -0.5774 -0.5773 -0.5773
vn 0.5774 -0.5774 -0.5773
usemtl blinn25SG.001
s 1
f 1/1/1 2/2/2 3/3/3 4/4/4
f 2/5/2 5/6/5 6/7/6 3/8/3
f 7/9/7 8/10/8 9/11/9 10/12/10
f 8/13/8 1/1/1 11/14/11 9/15/9
f 5/6/5 12/16/12 13/17/13 14/18/14
f 12/16/12 7/9/7 15/19/15 13/17/13
f 16/20/16 17/21/17 18/22/18 19/23/19
f 17/24/17 11/14/11 20/25/20 18/26/18
f 10/12/10 21/27/21 22/28/22 23/29/23
f 21/27/21 16/20/16 24/30/24 22/28/22
f 14/18/14 25/31/25 26/32/26 27/33/27
f 25/34/25 28/35/28 29/36/29 26/37/26
f 28/35/28 30/38/30 31/39/31 32/40/32
f 30/38/30 15/19/15 23/29/23 31/39/31
f 32/40/32 33/41/33 34/42/34 35/43/35
f 33/44/33 24/30/24 36/45/36 34/46/34
f 27/33/27 37/47/37 38/48/38 6/7/6
f 37/49/37 39/50/39 40/51/40 38/52/38
f 39/50/39 41/53/41 42/54/42 43/55/43
f 41/53/41 29/36/29 35/43/35 42/54/42
f 43/55/43 44/56/44 45/57/45 46/58/46
f 44/59/44 36/45/36 19/23/19 45/60/45
f 4/4/4 47/61/47 48/62/48 20/25/20
f 47/61/47 40/51/40 46/58/46 48/62/48
f 7/9/7 10/12/10 23/29/23 15/19/15
f 28/35/28 32/40/32 35/43/35 29/36/29
f 39/50/39 43/55/43 46/58/46 40/51/40
f 4/4/4 20/25/20 11/14/11 1/1/1
f 16/20/16 19/23/19 36/45/36 24/30/24
f 6/7/6 5/6/5 14/18/14 27/33/27
f 12/16/12 5/6/5 2/5/2 49/63/49
f 2/2/2 1/1/1 8/13/8 49/64/49
f 8/10/8 7/9/7 12/16/12 49/63/49
f 9/15/9 11/14/11 17/24/17 50/65/50
f 17/21/17 16/20/16 21/27/21 50/66/50
f 21/27/21 10/12/10 9/11/9 50/66/50
f 30/38/30 28/35/28 25/34/25 51/67/51
f 25/31/25 14/18/14 13/17/13 51/67/51
f 13/17/13 15/19/15 30/38/30 51/67/51
f 22/28/22 24/30/24 33/44/33 52/68/52
f 33/41/33 32/40/32 31/39/31 52/68/52
f 31/39/31 23/29/23 22/28/22 52/68/52
f 41/53/41 39/50/39 37/49/37 53/69/53
f 37/47/37 27/33/27 26/32/26 53/70/53
f 26/37/26 29/36/29 41/53/41 53/69/53
f 34/46/34 36/45/36 44/59/44 54/71/54
f 44/56/44 43/55/43 42/54/42 54/72/54
f 42/54/42 35/43/35 34/42/34 54/72/54
f 47/61/47 4/4/4 3/3/3 55/73/55
f 3/8/3 6/7/6 38/48/38 55/74/55
f 38/52/38 40/51/40 47/61/47 55/73/55
f 45/60/45 19/23/19 18/22/18 56/75/56
f 18/26/18 20/25/20 48/62/48 56/76/56
f 48/62/48 46/58/46 45/57/45 56/76/56
